<svg width="256" height="256" viewBox="0 0 256 256" fill="none" xmlns="http://www.w3.org/2000/svg">
  <rect width="256" height="256" rx="56" fill="#09090D"/>
  <rect x="24" y="24" width="208" height="208" rx="46" fill="url(#bgGradient)"/>
  <rect x="24" y="24" width="208" height="208" rx="46" stroke="#FFFFFF" stroke-opacity="0.07" stroke-width="2"/>

  <g filter="url(#shadow)">
    <path d="M74 70C74 63.3726 79.3726 58 86 58H125C162.003 58 192 87.997 192 125V176C192 182.627 186.627 188 180 188H86C79.3726 188 74 182.627 74 176V70Z" fill="#101118"/>
    <path d="M88 78C88 73.5817 91.5817 70 96 70H125C155.928 70 181 95.0721 181 126V168C181 172.418 177.418 176 173 176H96C91.5817 176 88 172.418 88 168V78Z" fill="url(#bookGradient)"/>
    <path d="M88 78C88 73.5817 91.5817 70 96 70H112V176H96C91.5817 176 88 172.418 88 168V78Z" fill="#FFF4EE"/>
    <path d="M112 70H125C155.928 70 181 95.0721 181 126V168C181 172.418 177.418 176 173 176H112V70Z" fill="url(#accentGradient)"/>
    <rect x="119" y="70" width="4" height="106" rx="2" fill="#FFD7C7" fill-opacity="0.65"/>
    <path d="M96 96H108" stroke="#FFB692" stroke-width="4" stroke-linecap="round"/>
    <path d="M96 116H108" stroke="#FFB692" stroke-width="4" stroke-linecap="round"/>
    <path d="M96 136H108" stroke="#FFB692" stroke-width="4" stroke-linecap="round"/>
    <path d="M96 156H108" stroke="#FFB692" stroke-width="4" stroke-linecap="round"/>
  </g>

  <circle cx="152" cy="118" r="28" fill="#FFF2EB" fill-opacity="0.14"/>
  <path d="M153.785 86L134 122H152.739L141.83 170L172 128.607H154.608L153.785 86Z" fill="#09090D"/>
  <path d="M153.785 86L134 122H152.739L141.83 170L172 128.607H154.608L153.785 86Z" fill="url(#boltGradient)"/>
  <path d="M153.785 86L134 122H152.739L141.83 170L172 128.607H154.608L153.785 86Z" stroke="#FFE6DA" stroke-width="4" stroke-linejoin="round"/>

  <defs>
    <linearGradient id="bgGradient" x1="40" y1="30" x2="216" y2="232" gradientUnits="userSpaceOnUse">
      <stop stop-color="#171822"/>
      <stop offset="1" stop-color="#0A0B10"/>
    </linearGradient>
    <linearGradient id="bookGradient" x1="88" y1="70" x2="181" y2="176" gradientUnits="userSpaceOnUse">
      <stop stop-color="#FFF0E8"/>
      <stop offset="0.36" stop-color="#FFC9A8"/>
      <stop offset="0.361" stop-color="#FF6A2B"/>
      <stop offset="1" stop-color="#D63A00"/>
    </linearGradient>
    <linearGradient id="accentGradient" x1="112" y1="70" x2="181" y2="176" gradientUnits="userSpaceOnUse">
      <stop stop-color="#FF7A1F"/>
      <stop offset="1" stop-color="#FF3D00"/>
    </linearGradient>
    <linearGradient id="boltGradient" x1="135" y1="91" x2="170" y2="165" gradientUnits="userSpaceOnUse">
      <stop stop-color="#FFF6F1"/>
      <stop offset="0.35" stop-color="#FFD7C2"/>
      <stop offset="0.36" stop-color="#FFB17C"/>
      <stop offset="1" stop-color="#FF6220"/>
    </linearGradient>
    <filter id="shadow" x="62" y="50" width="142" height="150" filterUnits="userSpaceOnUse" color-interpolation-filters="sRGB">
      <feFlood flood-opacity="0" result="BackgroundImageFix"/>
      <feColorMatrix in="SourceAlpha" type="matrix" values="0 0 0 0 0 0 0 0 0 0 0 0 0 0 0 0 0 0 127 0" result="hardAlpha"/>
      <feOffset dy="4"/>
      <feGaussianBlur stdDeviation="6"/>
      <feColorMatrix type="matrix" values="0 0 0 0 0 0 0 0 0 0 0 0 0 0 0 0 0 0 0.28 0"/>
      <feBlend mode="normal" in2="BackgroundImageFix" result="effect1_dropShadow"/>
      <feBlend mode="normal" in="SourceGraphic" in2="effect1_dropShadow" result="shape"/>
    </filter>
  </defs>
</svg>
