<svg width="860" height="220" viewBox="0 0 860 220" fill="none" xmlns="http://www.w3.org/2000/svg">
  <rect x="12" y="12" width="196" height="196" rx="44" fill="#09090D"/>
  <rect x="30" y="30" width="160" height="160" rx="36" fill="url(#bgGradient)"/>
  <rect x="30" y="30" width="160" height="160" rx="36" stroke="#FFFFFF" stroke-opacity="0.07" stroke-width="2"/>
  <g filter="url(#shadow)">
    <path d="M68 64C68 58.4772 72.4772 54 78 54H108C138.928 54 164 79.0721 164 110V146C164 151.523 159.523 156 154 156H78C72.4772 156 68 151.523 68 146V64Z" fill="#101118"/>
    <path d="M80 70C80 66.6863 82.6863 64 86 64H108C134.51 64 156 85.4903 156 112V140C156 143.314 153.314 146 150 146H86C82.6863 146 80 143.314 80 140V70Z" fill="url(#bookGradient)"/>
    <path d="M80 70C80 66.6863 82.6863 64 86 64H98V146H86C82.6863 146 80 143.314 80 140V70Z" fill="#FFF4EE"/>
    <path d="M98 64H108C134.51 64 156 85.4903 156 112V140C156 143.314 153.314 146 150 146H98V64Z" fill="url(#accentGradient)"/>
    <rect x="104" y="64" width="3" height="82" rx="1.5" fill="#FFD7C7" fill-opacity="0.65"/>
    <path d="M86 84H95" stroke="#FFB692" stroke-width="3.5" stroke-linecap="round"/>
    <path d="M86 100H95" stroke="#FFB692" stroke-width="3.5" stroke-linecap="round"/>
    <path d="M86 116H95" stroke="#FFB692" stroke-width="3.5" stroke-linecap="round"/>
    <path d="M86 132H95" stroke="#FFB692" stroke-width="3.5" stroke-linecap="round"/>
  </g>
  <circle cx="133" cy="105" r="23" fill="#FFF2EB" fill-opacity="0.14"/>
  <path d="M134.84 79L119 109H134.081L125.1 149L149 114.65H135.637L134.84 79Z" fill="url(#boltGradient)" stroke="#FFE6DA" stroke-width="3.5" stroke-linejoin="round"/>

  <text x="252" y="122" fill="#F8F7F4" font-family="'Space Grotesk', 'Segoe UI', sans-serif" font-size="74" font-weight="700" letter-spacing="-2">BitLibrary</text>
  <path d="M254 160H480" stroke="url(#underlineGradient)" stroke-width="8" stroke-linecap="round"/>
  <path d="M502 160H734" stroke="#FFFFFF" stroke-opacity="0.16" stroke-width="8" stroke-linecap="round"/>
  <text x="255" y="191" fill="#A1A1AA" font-family="'JetBrains Mono', 'Consolas', monospace" font-size="18" font-weight="500" letter-spacing="3">THE OPEN DIGITAL LIBRARY</text>

  <defs>
    <linearGradient id="bgGradient" x1="42" y1="36" x2="181" y2="191" gradientUnits="userSpaceOnUse">
      <stop stop-color="#171822"/>
      <stop offset="1" stop-color="#0A0B10"/>
    </linearGradient>
    <linearGradient id="bookGradient" x1="80" y1="64" x2="156" y2="146" gradientUnits="userSpaceOnUse">
      <stop stop-color="#FFF0E8"/>
      <stop offset="0.36" stop-color="#FFC9A8"/>
      <stop offset="0.361" stop-color="#FF6A2B"/>
      <stop offset="1" stop-color="#D63A00"/>
    </linearGradient>
    <linearGradient id="accentGradient" x1="98" y1="64" x2="156" y2="146" gradientUnits="userSpaceOnUse">
      <stop stop-color="#FF7A1F"/>
      <stop offset="1" stop-color="#FF3D00"/>
    </linearGradient>
    <linearGradient id="boltGradient" x1="120" y1="82" x2="147" y2="144" gradientUnits="userSpaceOnUse">
      <stop stop-color="#FFF6F1"/>
      <stop offset="0.35" stop-color="#FFD7C2"/>
      <stop offset="0.36" stop-color="#FFB17C"/>
      <stop offset="1" stop-color="#FF6220"/>
    </linearGradient>
    <linearGradient id="underlineGradient" x1="254" y1="160" x2="480" y2="160" gradientUnits="userSpaceOnUse">
      <stop stop-color="#FF7A1F"/>
      <stop offset="1" stop-color="#FF3D00"/>
    </linearGradient>
    <filter id="shadow" x="58" y="46" width="116" height="122" filterUnits="userSpaceOnUse" color-interpolation-filters="sRGB">
      <feFlood flood-opacity="0" result="BackgroundImageFix"/>
      <feColorMatrix in="SourceAlpha" type="matrix" values="0 0 0 0 0 0 0 0 0 0 0 0 0 0 0 0 0 0 127 0" result="hardAlpha"/>
      <feOffset dy="4"/>
      <feGaussianBlur stdDeviation="5"/>
      <feColorMatrix type="matrix" values="0 0 0 0 0 0 0 0 0 0 0 0 0 0 0 0 0 0 0.28 0"/>
      <feBlend mode="normal" in2="BackgroundImageFix" result="effect1_dropShadow"/>
      <feBlend mode="normal" in="SourceGraphic" in2="effect1_dropShadow" result="shape"/>
    </filter>
  </defs>
</svg>
