<svg width="256" height="256" viewBox="0 0 256 256" fill="none" xmlns="http://www.w3.org/2000/svg">
  <g filter="url(#shadow)">
    <path d="M22 28C22 17.5066 30.5066 9 41 9H96C167.797 9 226 67.203 226 139V216C226 226.493 217.493 235 207 235H41C30.5066 235 22 226.493 22 216V28Z" fill="#101118"/>
    <path d="M50 44C50 36.268 56.268 30 64 30H96C154.542 30 202 77.4578 202 136V198C202 205.732 195.732 212 188 212H64C56.268 212 50 205.732 50 198V44Z" fill="url(#bookGradient)"/>
    <path d="M50 44C50 36.268 56.268 30 64 30H90V212H64C56.268 212 50 205.732 50 198V44Z" fill="#FFF4EE"/>
    <path d="M90 30H96C154.542 30 202 77.4578 202 136V198C202 205.732 195.732 212 188 212H90V30Z" fill="url(#accentGradient)"/>
    <rect x="100" y="30" width="6" height="182" rx="3" fill="#FFD7C7" fill-opacity="0.76"/>
    <path d="M64 74H84" stroke="#FFB692" stroke-width="7" stroke-linecap="round"/>
    <path d="M64 108H84" stroke="#FFB692" stroke-width="7" stroke-linecap="round"/>
    <path d="M64 142H84" stroke="#FFB692" stroke-width="7" stroke-linecap="round"/>
    <path d="M64 176H84" stroke="#FFB692" stroke-width="7" stroke-linecap="round"/>
  </g>
  <circle cx="154" cy="110" r="44" fill="#FFF2EB" fill-opacity="0.16"/>
  <path d="M160 44L127 108H158.18L139 194L188 120.435H161.497L160 44Z" fill="url(#boltGradient)" stroke="#FFE6DA" stroke-width="7" stroke-linejoin="round"/>
  <defs>
    <linearGradient id="bookGradient" x1="50" y1="30" x2="202" y2="212" gradientUnits="userSpaceOnUse">
      <stop stop-color="#FFF0E8"/>
      <stop offset="0.36" stop-color="#FFC9A8"/>
      <stop offset="0.361" stop-color="#FF6A2B"/>
      <stop offset="1" stop-color="#D63A00"/>
    </linearGradient>
    <linearGradient id="accentGradient" x1="90" y1="30" x2="202" y2="212" gradientUnits="userSpaceOnUse">
      <stop stop-color="#FF7A1F"/>
      <stop offset="1" stop-color="#FF3D00"/>
    </linearGradient>
    <linearGradient id="boltGradient" x1="129" y1="57" x2="184" y2="184" gradientUnits="userSpaceOnUse">
      <stop stop-color="#FFF6F1"/>
      <stop offset="0.35" stop-color="#FFD7C2"/>
      <stop offset="0.36" stop-color="#FFB17C"/>
      <stop offset="1" stop-color="#FF6220"/>
    </linearGradient>
    <filter id="shadow" x="10" y="1" width="228" height="246" filterUnits="userSpaceOnUse" color-interpolation-filters="sRGB">
      <feFlood flood-opacity="0" result="BackgroundImageFix"/>
      <feColorMatrix in="SourceAlpha" type="matrix" values="0 0 0 0 0 0 0 0 0 0 0 0 0 0 0 0 0 0 127 0" result="hardAlpha"/>
      <feOffset dy="6"/>
      <feGaussianBlur stdDeviation="6"/>
      <feColorMatrix type="matrix" values="0 0 0 0 0 0 0 0 0 0 0 0 0 0 0 0 0 0 0.24 0"/>
      <feBlend mode="normal" in2="BackgroundImageFix" result="effect1_dropShadow"/>
      <feBlend mode="normal" in="SourceGraphic" in2="effect1_dropShadow" result="shape"/>
    </filter>
  </defs>
</svg>
