<svg width="420" height="520" viewBox="0 0 420 520" fill="none" xmlns="http://www.w3.org/2000/svg">
  <rect x="110" y="24" width="200" height="200" rx="46" fill="#09090D"/>
  <rect x="128" y="42" width="164" height="164" rx="38" fill="url(#bgGradient)"/>
  <rect x="128" y="42" width="164" height="164" rx="38" stroke="#FFFFFF" stroke-opacity="0.07" stroke-width="2"/>
  <g filter="url(#shadow)">
    <path d="M166 76C166 70.4772 170.477 66 176 66H206C236.928 66 262 91.0721 262 122V158C262 163.523 257.523 168 252 168H176C170.477 168 166 163.523 166 158V76Z" fill="#101118"/>
    <path d="M178 82C178 78.6863 180.686 76 184 76H206C232.51 76 254 97.4903 254 124V152C254 155.314 251.314 158 248 158H184C180.686 158 178 155.314 178 152V82Z" fill="url(#bookGradient)"/>
    <path d="M178 82C178 78.6863 180.686 76 184 76H196V158H184C180.686 158 178 155.314 178 152V82Z" fill="#FFF4EE"/>
    <path d="M196 76H206C232.51 76 254 97.4903 254 124V152C254 155.314 251.314 158 248 158H196V76Z" fill="url(#accentGradient)"/>
    <rect x="202" y="76" width="3" height="82" rx="1.5" fill="#FFD7C7" fill-opacity="0.65"/>
    <path d="M184 96H193" stroke="#FFB692" stroke-width="3.5" stroke-linecap="round"/>
    <path d="M184 112H193" stroke="#FFB692" stroke-width="3.5" stroke-linecap="round"/>
    <path d="M184 128H193" stroke="#FFB692" stroke-width="3.5" stroke-linecap="round"/>
    <path d="M184 144H193" stroke="#FFB692" stroke-width="3.5" stroke-linecap="round"/>
  </g>
  <circle cx="231" cy="117" r="23" fill="#FFF2EB" fill-opacity="0.14"/>
  <path d="M232.84 91L217 121H232.081L223.1 161L247 126.65H233.637L232.84 91Z" fill="url(#boltGradient)" stroke="#FFE6DA" stroke-width="3.5" stroke-linejoin="round"/>
  <text x="210" y="302" text-anchor="middle" fill="#F8F7F4" font-family="'Space Grotesk', 'Segoe UI', sans-serif" font-size="62" font-weight="700" letter-spacing="-1.6">BitLibrary</text>
  <path d="M105 334H315" stroke="url(#underlineGradient)" stroke-width="8" stroke-linecap="round"/>
  <text x="210" y="372" text-anchor="middle" fill="#A1A1AA" font-family="'JetBrains Mono', 'Consolas', monospace" font-size="16" font-weight="500" letter-spacing="3">THE OPEN DIGITAL LIBRARY</text>
  <defs>
    <linearGradient id="bgGradient" x1="140" y1="48" x2="283" y2="210" gradientUnits="userSpaceOnUse">
      <stop stop-color="#171822"/>
      <stop offset="1" stop-color="#0A0B10"/>
    </linearGradient>
    <linearGradient id="bookGradient" x1="178" y1="76" x2="254" y2="158" gradientUnits="userSpaceOnUse">
      <stop stop-color="#FFF0E8"/>
      <stop offset="0.36" stop-color="#FFC9A8"/>
      <stop offset="0.361" stop-color="#FF6A2B"/>
      <stop offset="1" stop-color="#D63A00"/>
    </linearGradient>
    <linearGradient id="accentGradient" x1="196" y1="76" x2="254" y2="158" gradientUnits="userSpaceOnUse">
      <stop stop-color="#FF7A1F"/>
      <stop offset="1" stop-color="#FF3D00"/>
    </linearGradient>
    <linearGradient id="boltGradient" x1="218" y1="94" x2="245" y2="156" gradientUnits="userSpaceOnUse">
      <stop stop-color="#FFF6F1"/>
      <stop offset="0.35" stop-color="#FFD7C2"/>
      <stop offset="0.36" stop-color="#FFB17C"/>
      <stop offset="1" stop-color="#FF6220"/>
    </linearGradient>
    <linearGradient id="underlineGradient" x1="105" y1="334" x2="315" y2="334" gradientUnits="userSpaceOnUse">
      <stop stop-color="#FF7A1F"/>
      <stop offset="1" stop-color="#FF3D00"/>
    </linearGradient>
    <filter id="shadow" x="156" y="58" width="116" height="122" filterUnits="userSpaceOnUse" color-interpolation-filters="sRGB">
      <feFlood flood-opacity="0" result="BackgroundImageFix"/>
      <feColorMatrix in="SourceAlpha" type="matrix" values="0 0 0 0 0 0 0 0 0 0 0 0 0 0 0 0 0 0 127 0" result="hardAlpha"/>
      <feOffset dy="4"/>
      <feGaussianBlur stdDeviation="5"/>
      <feColorMatrix type="matrix" values="0 0 0 0 0 0 0 0 0 0 0 0 0 0 0 0 0 0 0.28 0"/>
      <feBlend mode="normal" in2="BackgroundImageFix" result="effect1_dropShadow"/>
      <feBlend mode="normal" in="SourceGraphic" in2="effect1_dropShadow" result="shape"/>
    </filter>
  </defs>
</svg>
